<?xml version="1.0" encoding="utf-8"?>
<!-- Generator: Adobe Illustrator 23.0.2, SVG Export Plug-In . SVG Version: 6.00 Build 0)  -->
<svg version="1.1" id="Capa_1" xmlns="http://www.w3.org/2000/svg" xmlns:xlink="http://www.w3.org/1999/xlink" x="0px" y="0px"
	 viewBox="0 0 71.6 24" style="enable-background:new 0 0 71.6 24;" xml:space="preserve">
<style type="text/css">
	.st0{fill:#A6A6A6;}
	.st1{fill:#FFFFFF;}
</style>
<title>Download_on_the_App_Store_Badge_ES_RGB_blk_100217</title>
<desc>Created with Sketch.</desc>
<g id="Logon">
	<g transform="translate(-839.000000, -670.000000)">
		<g id="modal" transform="translate(303.000000, 93.000000)">
			<g transform="translate(509.000000, 16.000000)">
				<g id="content" transform="translate(19.000000, 40.000000)">
					<g transform="translate(8.000000, 445.000000)">
						<g id="store-badges" transform="translate(0.000000, 70.000000)">
							<g id="Download_on_the_App_Store_Badge_ES_RGB_blk_100217" transform="translate(0.000000, 6.000000)">
								<g>
									<g id="Shape">
										<path class="st0" d="M65.9,0H5.7C5.5,0,5.3,0,5.1,0C4.9,0,4.7,0,4.5,0C4.1,0,3.7,0,3.3,0.1C2.9,0.2,2.5,0.3,2.2,0.5
											c-0.4,0.2-0.7,0.4-1,0.7c-0.3,0.3-0.5,0.6-0.7,1C0.3,2.5,0.2,2.9,0.1,3.3C0,3.7,0,4.1,0,4.5c0,0.2,0,0.4,0,0.6v13.9
											c0,0.2,0,0.4,0,0.6c0,0.4,0,0.8,0.1,1.2c0.1,0.4,0.2,0.8,0.4,1.1c0.2,0.4,0.4,0.7,0.7,1c0.3,0.3,0.6,0.5,1,0.7
											c0.4,0.2,0.7,0.3,1.1,0.4C3.7,24,4.1,24,4.5,24c0.2,0,0.4,0,0.5,0c0.2,0,0.4,0,0.7,0h60.2c0.2,0,0.4,0,0.6,0
											c0.2,0,0.4,0,0.6,0c0.4,0,0.8,0,1.2-0.1c0.4-0.1,0.8-0.2,1.1-0.4c0.4-0.2,0.7-0.4,1-0.7c0.3-0.3,0.5-0.6,0.7-1
											c0.2-0.4,0.3-0.7,0.4-1.1c0.1-0.4,0.1-0.8,0.1-1.2c0-0.2,0-0.4,0-0.6c0-0.2,0-0.4,0-0.7V5.7c0-0.2,0-0.4,0-0.7
											c0-0.2,0-0.4,0-0.6c0-0.4,0-0.8-0.1-1.2c-0.1-0.4-0.2-0.8-0.4-1.1c-0.4-0.7-1-1.3-1.7-1.7c-0.4-0.2-0.7-0.3-1.1-0.4
											C67.9,0,67.5,0,67.1,0c-0.2,0-0.4,0-0.6,0C66.3,0,66.1,0,65.9,0L65.9,0z"/>
										<path d="M5.1,23.5c-0.2,0-0.4,0-0.5,0c-0.4,0-0.7,0-1.1-0.1c-0.3-0.1-0.7-0.2-1-0.3c-0.3-0.2-0.6-0.4-0.8-0.6
											c-0.2-0.2-0.5-0.5-0.6-0.8c-0.2-0.3-0.3-0.6-0.3-1c-0.1-0.4-0.1-0.7-0.1-1.1c0-0.1,0-0.5,0-0.5V5.1c0,0,0-0.4,0-0.5
											c0-0.4,0-0.8,0.1-1.1c0.1-0.3,0.2-0.7,0.3-1c0.2-0.3,0.4-0.6,0.6-0.8C1.8,1.3,2.1,1.1,2.4,1c0.3-0.2,0.6-0.3,1-0.3
											c0.4-0.1,0.7-0.1,1.1-0.1l0.5,0h61.5l0.5,0c0.4,0,0.7,0,1.1,0.1c0.3,0.1,0.7,0.2,1,0.3c0.6,0.3,1.1,0.8,1.4,1.5
											c0.2,0.3,0.3,0.6,0.3,1c0.1,0.4,0.1,0.8,0.1,1.1c0,0.2,0,0.4,0,0.5c0,0.2,0,0.4,0,0.7v12.6c0,0.2,0,0.4,0,0.6
											c0,0.2,0,0.4,0,0.6c0,0.4,0,0.7-0.1,1.1c-0.1,0.3-0.2,0.7-0.3,1c-0.2,0.3-0.4,0.6-0.6,0.8c-0.2,0.2-0.5,0.5-0.8,0.6
											c-0.3,0.2-0.7,0.3-1,0.3c-0.4,0.1-0.7,0.1-1.1,0.1c-0.2,0-0.4,0-0.5,0l-0.6,0L5.1,23.5z"/>
									</g>
									<g id="_Group_" transform="translate(5.385143, 4.800000)">
										<g id="_Group_2">
											<g id="_Group_3">
												<path id="_Path_" class="st1" d="M9.4,7.4c0-1,0.5-2,1.4-2.5c-0.5-0.8-1.4-1.3-2.4-1.3c-1-0.1-2,0.6-2.5,0.6
													c-0.5,0-1.3-0.6-2.2-0.6c-1.1,0-2.1,0.7-2.7,1.6c-1.2,2-0.3,5,0.8,6.6c0.6,0.8,1.2,1.7,2.1,1.7c0.8,0,1.1-0.5,2.1-0.5
													c1,0,1.3,0.5,2.1,0.5c0.9,0,1.5-0.8,2-1.6c0.4-0.6,0.7-1.2,0.9-1.9C10.1,9.6,9.4,8.5,9.4,7.4z"/>
												<path id="_Path_2" class="st1" d="M7.8,2.5c0.5-0.6,0.7-1.3,0.7-2.1C7.7,0.5,7,0.9,6.5,1.4C6.1,2,5.8,2.7,5.9,3.4
													C6.6,3.5,7.3,3.1,7.8,2.5z"/>
											</g>
										</g>
										<g id="Group" transform="translate(14.958730, 5.400000)">
											<path class="st1" d="M5,6.1H2.1l-0.7,2H0.3l2.7-7.5h1.2l2.7,7.5H5.6L5,6.1z M2.4,5.2h2.2L3.6,1.9h0L2.4,5.2z"/>
											<path class="st1" d="M12.7,5.4c0,1.7-0.9,2.8-2.3,2.8c-0.7,0-1.4-0.3-1.7-1h0v2.7H7.6V2.7h1.1v0.9h0c0.4-0.6,1-1,1.7-1
												C11.8,2.6,12.7,3.7,12.7,5.4z M11.5,5.4c0-1.1-0.6-1.8-1.4-1.8c-0.8,0-1.4,0.7-1.4,1.8c0,1.1,0.6,1.8,1.4,1.8
												C11,7.2,11.5,6.5,11.5,5.4z"/>
											<path class="st1" d="M18.6,5.4c0,1.7-0.9,2.8-2.3,2.8c-0.7,0-1.4-0.3-1.7-1h0v2.7h-1.1V2.7h1.1v0.9h0c0.4-0.6,1-1,1.7-1
												C17.7,2.6,18.6,3.7,18.6,5.4z M17.5,5.4c0-1.1-0.6-1.8-1.4-1.8c-0.8,0-1.4,0.7-1.4,1.8c0,1.1,0.6,1.8,1.4,1.8
												C16.9,7.2,17.5,6.5,17.5,5.4L17.5,5.4z"/>
											<path class="st1" d="M22.6,6c0.1,0.7,0.8,1.2,1.8,1.2c0.9,0,1.6-0.5,1.6-1.2c0-0.6-0.4-0.9-1.4-1.2l-1-0.2
												c-1.4-0.3-2-1-2-2c0-1.3,1.1-2.2,2.7-2.2c1.6,0,2.6,0.9,2.7,2.2h-1.1c-0.1-0.7-0.7-1.2-1.6-1.2S22.8,2,22.8,2.6
												c0,0.5,0.4,0.8,1.3,1.1L25,3.9c1.5,0.4,2.2,1,2.2,2.1c0,1.4-1.1,2.3-2.9,2.3c-1.6,0-2.8-0.9-2.8-2.2L22.6,6z"/>
											<path class="st1" d="M29.5,1.4v1.3h1v0.9h-1v3c0,0.5,0.2,0.7,0.7,0.7c0.1,0,0.2,0,0.4,0v0.9c-0.2,0-0.4,0.1-0.6,0.1
												c-1.1,0-1.5-0.4-1.5-1.5V3.5h-0.8V2.7h0.8V1.4H29.5z"/>
											<path class="st1" d="M31.2,5.4c0-1.7,1-2.8,2.6-2.8c1.6,0,2.6,1.1,2.6,2.8c0,1.7-1,2.8-2.6,2.8
												C32.1,8.2,31.2,7.1,31.2,5.4z M35.2,5.4c0-1.2-0.5-1.9-1.4-1.9c-0.9,0-1.4,0.7-1.4,1.9c0,1.2,0.5,1.9,1.4,1.9
												C34.6,7.2,35.2,6.6,35.2,5.4L35.2,5.4z"/>
											<path class="st1" d="M37.2,2.7h1.1v0.9h0c0.1-0.6,0.7-1,1.3-1c0.1,0,0.3,0,0.4,0v1c-0.2,0-0.3-0.1-0.5-0.1
												c-0.3,0-0.6,0.1-0.9,0.4s-0.3,0.6-0.3,0.9v3.2h-1.1L37.2,2.7z"/>
											<path class="st1" d="M45.1,6.5c-0.1,1-1.1,1.7-2.3,1.7c-1.6,0-2.6-1.1-2.6-2.8c0-1.7,1-2.8,2.5-2.8c1.5,0,2.4,1,2.4,2.7
												v0.4h-3.8v0.1c0,0.4,0.1,0.8,0.4,1.1s0.7,0.5,1.1,0.4c0.5,0.1,1-0.3,1.3-0.8L45.1,6.5z M41.3,4.9l2.7,0
												c0-0.4-0.1-0.7-0.4-1s-0.6-0.4-1-0.4c-0.4,0-0.7,0.1-1,0.4S41.3,4.5,41.3,4.9z"/>
										</g>
									</g>
								</g>
								<g id="_Group_4" transform="translate(20.784762, 4.800000)">
									<g>
										<path class="st1" d="M0.3,2.4c0-1.2,0.6-2,1.6-2c0.7,0,1.4,0.5,1.5,1.3H2.8C2.7,1.2,2.3,0.9,1.9,0.9c-0.6,0-1,0.6-1,1.5
											c0,0.9,0.4,1.4,1.1,1.4c0.4,0,0.8-0.3,0.9-0.7h0.6C3.3,3.9,2.6,4.4,1.9,4.4C0.9,4.4,0.3,3.6,0.3,2.4z"/>
										<path class="st1" d="M4,2.8c0-0.5,0.2-1,0.6-1.3s0.9-0.3,1.4,0s0.6,0.8,0.6,1.3c0,0.5-0.2,1-0.6,1.3
											C5.5,4.4,5,4.4,4.6,4.1S3.9,3.4,4,2.8z M6,2.8c0-0.6-0.3-1-0.7-1c-0.5,0-0.7,0.4-0.7,1c0,0.6,0.3,1,0.7,1
											C5.7,3.8,6,3.5,6,2.8L6,2.8z"/>
										<path class="st1" d="M7.3,1.4h0.5v0.5h0C8,1.5,8.3,1.3,8.6,1.3c0.3,0,0.5,0.1,0.7,0.3c0.2,0.2,0.3,0.5,0.2,0.8v1.9H9V2.6
											c0-0.5-0.2-0.7-0.6-0.7C8.3,1.9,8.1,1.9,8,2.1C7.8,2.2,7.8,2.4,7.8,2.6v1.7H7.3V1.4z"/>
										<path class="st1" d="M11.4,1.3c0.6,0,1,0.3,1.1,0.8h-0.5c0-0.2-0.2-0.3-0.5-0.3c-0.3,0-0.5,0.2-0.5,0.4
											c0,0.2,0.1,0.3,0.4,0.4l0.5,0.1c0.5,0.1,0.8,0.4,0.8,0.8c0,0.5-0.5,0.9-1.1,0.9c-0.6,0-1.1-0.3-1.1-0.8h0.5
											c0.1,0.3,0.3,0.4,0.6,0.4c0.3,0,0.6-0.2,0.6-0.4c0-0.2-0.1-0.3-0.4-0.4L11.1,3c-0.5-0.1-0.8-0.4-0.8-0.8
											C10.3,1.7,10.8,1.3,11.4,1.3z"/>
										<path class="st1" d="M13.2,0.9L13.8,0h0.6l-0.7,0.9H13.2z M13.2,1.4h0.5v2.9h-0.5V1.4z"/>
										<path class="st1" d="M14.6,4.6h0.5c0,0.2,0.3,0.3,0.6,0.3c0.4,0,0.7-0.2,0.7-0.6V3.8h0c-0.2,0.3-0.5,0.5-0.8,0.5
											c-0.7,0-1.1-0.6-1.1-1.4c0-0.9,0.4-1.5,1.1-1.5c0.4,0,0.7,0.2,0.9,0.5h0V1.4H17v2.9c0,0.7-0.5,1.1-1.3,1.1
											C15.1,5.4,14.7,5.1,14.6,4.6z M16.5,2.8c0-0.6-0.3-0.9-0.7-0.9c-0.5,0-0.7,0.4-0.7,0.9c0,0.6,0.3,0.9,0.7,0.9
											C16.2,3.8,16.5,3.4,16.5,2.8z"/>
										<path class="st1" d="M20.2,4.3h-0.5V3.8h0c-0.1,0.3-0.5,0.5-0.8,0.5c-0.3,0-0.5-0.1-0.7-0.3c-0.2-0.2-0.3-0.5-0.2-0.8V1.4
											h0.5v1.7c0,0.5,0.2,0.7,0.6,0.7c0.2,0,0.4-0.1,0.5-0.2c0.1-0.1,0.2-0.3,0.2-0.5V1.4h0.5V4.3z"/>
										<path class="st1" d="M23.3,3.5c-0.2,0.5-0.6,0.9-1.2,0.8c-0.4,0-0.7-0.1-1-0.4s-0.4-0.7-0.3-1.1c0-0.4,0.1-0.8,0.3-1.1
											c0.2-0.3,0.6-0.5,0.9-0.4c0.8,0,1.2,0.5,1.2,1.5V3h-1.9v0c0,0.2,0.1,0.4,0.2,0.6c0.1,0.2,0.3,0.2,0.5,0.2
											c0.3,0,0.5-0.1,0.6-0.3L23.3,3.5z M21.4,2.6h1.4c0-0.2-0.1-0.4-0.2-0.5c-0.1-0.1-0.3-0.2-0.5-0.2c-0.2,0-0.4,0.1-0.5,0.2
											S21.4,2.4,21.4,2.6z"/>
										<polygon class="st1" points="24.1,0.3 24.6,0.3 24.6,4.3 24.1,4.3 										"/>
										<path class="st1" d="M25.4,2.8c0-0.5,0.2-1,0.6-1.3s0.9-0.3,1.4,0s0.6,0.8,0.6,1.3c0,0.5-0.2,1-0.6,1.3s-0.9,0.3-1.4,0
											C25.5,3.9,25.3,3.4,25.4,2.8z M27.4,2.8c0-0.6-0.3-1-0.7-1c-0.5,0-0.7,0.4-0.7,1c0,0.6,0.3,1,0.7,1
											C27.1,3.8,27.4,3.5,27.4,2.8L27.4,2.8z"/>
										<path class="st1" d="M32.4,3.5c-0.2,0.5-0.6,0.9-1.2,0.8c-0.4,0-0.7-0.1-1-0.4C30,3.6,29.9,3.2,30,2.9
											c0-0.4,0.1-0.8,0.3-1.1s0.6-0.5,0.9-0.4c0.8,0,1.2,0.5,1.2,1.5V3h-1.9v0c0,0.2,0.1,0.4,0.2,0.6c0.1,0.2,0.3,0.2,0.5,0.2
											c0.3,0,0.5-0.1,0.6-0.3L32.4,3.5z M30.5,2.6h1.4c0-0.2-0.1-0.4-0.2-0.5c-0.1-0.1-0.3-0.2-0.5-0.2c-0.2,0-0.4,0.1-0.5,0.2
											C30.6,2.2,30.5,2.4,30.5,2.6L30.5,2.6z"/>
										<path class="st1" d="M33.2,1.4h0.5v0.5h0c0.1-0.3,0.5-0.5,0.8-0.5c0.3,0,0.5,0.1,0.7,0.3c0.2,0.2,0.3,0.5,0.2,0.8v1.9
											h-0.5V2.6c0-0.5-0.2-0.7-0.6-0.7c-0.2,0-0.4,0.1-0.5,0.2c-0.1,0.1-0.2,0.3-0.2,0.5v1.7h-0.5V1.4z"/>
										<path class="st1" d="M40.1,3.5c-0.2,0.5-0.6,0.9-1.2,0.8c-0.4,0-0.7-0.1-1-0.4s-0.4-0.7-0.3-1.1c0-0.4,0.1-0.8,0.3-1.1
											s0.6-0.5,0.9-0.4c0.8,0,1.2,0.5,1.2,1.5V3h-1.9v0c0,0.2,0.1,0.4,0.2,0.6c0.1,0.2,0.3,0.2,0.5,0.2c0.3,0,0.5-0.1,0.6-0.3
											L40.1,3.5z M38.2,2.6h1.4c0-0.2-0.1-0.4-0.2-0.5s-0.3-0.2-0.5-0.2c-0.2,0-0.4,0.1-0.5,0.2C38.2,2.2,38.2,2.4,38.2,2.6
											L38.2,2.6z"/>
										<polygon class="st1" points="40.8,0.3 41.4,0.3 41.4,4.3 40.8,4.3 										"/>
									</g>
								</g>
							</g>
						</g>
					</g>
				</g>
			</g>
		</g>
	</g>
</g>
</svg>
