<!-- Generated by IcoMoon.io -->
<svg version="1.1" xmlns="http://www.w3.org/2000/svg" width="159" height="32" viewBox="0 0 159 32">
<title>Ibercaja-logo-completo</title>
<path fill="#fff" d="M122.502 14.964s0.049-0.359 0.044-0.47c0.009-0.098 0.031-0.188 0.064-0.273l-0.002 0.007c0-0.031 0.049-0.115 0.053-0.138 0.025-0.054 0.045-0.116 0.057-0.182l0.001-0.005c0.013-0.060 0.030-0.112 0.051-0.161l-0.002 0.006c0.012-0.087 0.041-0.165 0.086-0.233l-0.001 0.002c0-0.022 0.067-0.173 0.067-0.173s0.075-0.178 0.080-0.2 0.098-0.244 0.102-0.262 0.062-0.133 0.067-0.155 0.080-0.129 0.084-0.155 0.102-0.209 0.106-0.222 0.124-0.262 0.133-0.275l0.089-0.146c0-0.027 0.093-0.164 0.102-0.182s0.084-0.16 0.098-0.173c0.031-0.040 0.058-0.085 0.078-0.134l0.002-0.004s0.049-0.062 0.058-0.098c0.050-0.114 0.108-0.211 0.176-0.301l-0.003 0.004s0.062-0.115 0.075-0.129 0.106-0.195 0.133-0.24c0.032-0.047 0.064-0.087 0.099-0.125l-0.001 0.001c0.036-0.059 0.073-0.11 0.113-0.158l-0.002 0.002c0.026-0.035 0.050-0.074 0.069-0.116l0.002-0.004s0.186-0.271 0.204-0.302l0.071-0.093c0.055-0.054 0.104-0.116 0.144-0.182l0.002-0.004c0.030-0.054 0.065-0.101 0.106-0.142l0-0c0.046-0.041 0.085-0.088 0.118-0.139l0.002-0.003c0.045-0.068 0.092-0.128 0.143-0.183l-0.001 0.001s0.164-0.244 0.182-0.257 0.244-0.284 0.262-0.311l0.151-0.173 0.191-0.217c0.026-0.021 0.048-0.046 0.066-0.074l0.001-0.001c0.027-0.044 0.333-0.391 0.346-0.404l0.106-0.106c0.054-0.030 0.097-0.072 0.128-0.123l0.001-0.002c0.055-0.073 0.117-0.137 0.184-0.194l0.002-0.002c0.063-0.071 0.126-0.136 0.193-0.198l0.002-0.002c0.027-0.022 0.377-0.395 0.404-0.413s0.293-0.271 0.293-0.271 0.093-0.071 0.102-0.102c0.050-0.061 0.104-0.114 0.162-0.163l0.002-0.002c0.039-0.022 0.073-0.049 0.102-0.080l0-0c0.017-0.021 0.034-0.040 0.053-0.057l0-0c0.020-0.022 0.040-0.042 0.061-0.061l0.001-0.001s0.204-0.173 0.204-0.182 0.226-0.186 0.226-0.186l0.182-0.138c0.047-0.054 0.101-0.101 0.161-0.14l0.003-0.002c0.027 0 0.084-0.075 0.098-0.084l0.12-0.111 0.107-0.075c0.031-0.025 0.057-0.055 0.079-0.087l0.001-0.001c0-0.027 0.058-0.031 0.075-0.040l0.173-0.12v-0.035c0.001 0 0.002 0 0.003 0 0.021 0 0.038-0.013 0.045-0.031l0-0c0.029-0.029 0.061-0.053 0.095-0.074l0.002-0.001c0.014-0.013 0.030-0.025 0.047-0.035l0.001-0.001s0.222-0.164 0.231-0.169 0.053-0.031 0.053-0.049 0.027-0.044 0.089-0.062 0.071-0.053 0.084-0.062c0.026-0.023 0.057-0.041 0.091-0.053l0.002-0.001c0.036 0 0.036-0.031 0.044-0.053 0.007-0.004 0.015-0.007 0.024-0.007s0.017 0.002 0.025 0.007l-0-0c0.048-0.024 0.088-0.049 0.127-0.077l-0.003 0.002 0.084-0.049 0.036-0.031s0.067 0 0.075-0.049 0.084-0.053 0.102-0.062l0.231-0.138s0.062-0.044 0.062-0.044c0.032-0.002 0.060-0.017 0.080-0.040l0-0c0.036-0.040 0.098-0.044 0.107-0.058s0.182-0.098 0.195-0.115 0.031-0.035 0.040-0.035 0 0 0.049-0.022c0.060-0.037 0.133-0.075 0.208-0.11l0.014-0.006c0.022-0.013 0.041-0.028 0.058-0.045l-0 0s0.080-0.027 0.089-0.035l0.107-0.062c0.038-0.026 0.082-0.050 0.128-0.069l0.005-0.002 0.146-0.080c0.029-0.018 0.063-0.033 0.099-0.044l0.003-0.001c0.022 0 0.031 0 0.036 0l0.058-0.044 0.222-0.102 0.102-0.027c0.055-0.038 0.119-0.075 0.186-0.107l0.009-0.004c0.049-0.022 0.090-0.044 0.129-0.069l-0.004 0.003s0.049 0 0.080 0 0.28-0.138 0.297-0.151c0.026-0.020 0.058-0.035 0.091-0.044l0.002-0c0.067-0.017 0.126-0.043 0.18-0.077l-0.002 0.001c0-0.022 0.040 0 0.058-0.022s0.222-0.093 0.253-0.102 0.231-0.093 0.244-0.107l0.151-0.071s0.275-0.107 0.302-0.12l0.146-0.053s0.293-0.12 0.306-0.124 0.062 0 0.075 0c0.049-0.028 0.107-0.054 0.166-0.074l0.007-0.002 0.129-0.049 0.524-0.2s0.302-0.102 0.324-0.115c0.074-0.035 0.17-0.072 0.268-0.105l0.021-0.006c0.083-0.018 0.156-0.043 0.225-0.074l-0.007 0.003c0.080-0.036 0.182-0.074 0.286-0.106l0.020-0.005c0.059-0.009 0.111-0.023 0.161-0.042l-0.006 0.002c0.049-0.022 0.266-0.084 0.266-0.084l0.244-0.093c0.058 0 0.102-0.062 0.204-0.067 0.063-0.003 0.122-0.017 0.176-0.041l-0.003 0.001c0.053 0 0.675-0.204 0.737-0.213l0.213-0.062 0.084-0.044c0.064-0.029 0.139-0.050 0.217-0.062l0.005-0.001s0.138 0 0.155-0.031l0.222-0.12c0.098-0.040 0.772-0.138 0.923-0.169 0.075 0 0.089-0.040 0.155-0.044 0.059 0.003 0.128 0.005 0.197 0.005s0.138-0.002 0.207-0.005l-0.010 0c0.029-0.010 0.063-0.015 0.098-0.015s0.068 0.006 0.1 0.016l-0.002-0.001c0.072 0.017 0.155 0.027 0.24 0.027 0.009 0 0.019-0 0.028-0l-0.001 0h0.444c0.035 0.004 0.076 0.007 0.118 0.007s0.082-0.002 0.122-0.007l-0.005 0c0.046-0.004 0.099-0.006 0.154-0.006 0.12 0 0.237 0.010 0.351 0.030l-0.012-0.002c0.032 0.010 0.070 0.019 0.11 0.026l0.005 0.001c0.020-0.003 0.043-0.004 0.067-0.004s0.047 0.002 0.069 0.005l-0.003-0c0.089 0 0.172 0.027 0.241 0.072l-0.002-0.001c0.039 0.026 0.086 0.042 0.137 0.044l0.001 0c0.051 0.017 0.111 0.031 0.172 0.039l0.005 0.001c0.035-0.002 0.076-0.003 0.118-0.003s0.082 0.001 0.123 0.004l-0.006-0 0.191 0.031c0.024 0.002 0.052 0.004 0.080 0.004s0.056-0.001 0.083-0.004l-0.003 0c0.075 0.017 0.142 0.043 0.203 0.077l-0.004-0.002c0.036 0 0.151 0.049 0.178 0.053l0.151 0.040h0.027c0.124 0.018 0.236 0.055 0.338 0.109l-0.005-0.003 0.098 0.040c0.053 0.023 0.115 0.042 0.179 0.056l0.007 0.001c0.049 0 0.093 0.049 0.124 0.049 0.095 0.027 0.171 0.054 0.246 0.085l-0.015-0.006c0.012 0.002 0.026 0.004 0.040 0.004s0.028-0.001 0.041-0.004l-0.001 0c0.031 0 0.2 0.098 0.231 0.102 0.039 0.020 0.087 0.041 0.137 0.059l0.009 0.003c0.027 0 0.182 0.089 0.195 0.093 0.050 0.024 0.092 0.050 0.132 0.077l-0.003-0.002 0.084 0.049 0.155 0.075c0.038 0.020 0.083 0.037 0.129 0.048l0.004 0.001c0.031 0 0.089 0.040 0.098 0.040 0.020 0.016 0.044 0.027 0.070 0.031l0.001 0c0.032 0.007 0.061 0.021 0.085 0.040l-0-0 0.080 0.027c0.024 0.020 0.050 0.039 0.077 0.056l0.003 0.002s0.133 0.062 0.151 0.062c0.065 0.027 0.119 0.054 0.171 0.084l-0.007-0.004c0.042 0.036 0.072 0.085 0.084 0.14l0 0.002c0.007 0.002 0.014 0.002 0.022 0.002s0.016-0.001 0.023-0.003l-0.001 0 0.049 0.031s0.044 0 0.044 0.027c0.022 0.013 0.046 0.025 0.073 0.035l0.003 0.001c0.023 0.012 0.042 0.029 0.057 0.048l0 0c0.087 0.038 0.161 0.081 0.23 0.131l-0.003-0.002c0.051 0.018 0.096 0.043 0.134 0.076l-0.001-0c0.028 0.027 0.058 0.051 0.091 0.074l0.003 0.002c0.022 0 0.022 0 0.022 0 0.005-0.001 0.012-0.001 0.018-0.001s0.012 0 0.018 0.001l-0.001-0c0.028 0.012 0.052 0.030 0.071 0.053l0 0s0 0 0.067 0.044c0.044 0.026 0.082 0.057 0.115 0.093l0 0s0.044 0.040 0.053 0.040c0.111 0.063 0.207 0.134 0.294 0.214l-0.001-0.001c0.032 0.030 0.068 0.055 0.108 0.074l0.003 0.001 0.111 0.058c0.053 0.031 0.142 0.107 0.186 0.138s0.222 0.173 0.222 0.173c0.090 0.077 0.19 0.148 0.297 0.208l0.009 0.005c0.053 0.020 0.098 0.045 0.139 0.076l-0.001-0.001c0.050 0.041 0.094 0.086 0.132 0.136l0.001 0.002c0.027 0.044 0.065 0.078 0.109 0.101l0.002 0.001c0.066 0.054 0.123 0.115 0.171 0.183l0.002 0.003c0.024 0.036 0.053 0.065 0.088 0.088l0.001 0.001s0.049 0.049 0.049 0.071c-0 0.001-0 0.002-0 0.003 0 0.025 0.014 0.048 0.035 0.059l0 0c0.036 0.038 0.062 0.086 0.071 0.14l0 0.002c-0.004 0.011-0.007 0.023-0.007 0.035s0.002 0.025 0.007 0.036l-0-0.001c0.035 0.057 0.059 0.125 0.071 0.197l0 0.003s0 0 0 0.062 0.080 0.129 0.084 0.146c0.003 0.016 0.005 0.034 0.005 0.053s-0.002 0.037-0.005 0.055l0-0.002c0 0.044 0.040 0.080 0.062 0.151 0.004 0.024 0.006 0.052 0.006 0.080s-0.002 0.056-0.006 0.083l0-0.003c-0.007 0.027-0.010 0.059-0.010 0.091s0.004 0.064 0.011 0.094l-0.001-0.003c0 0.084 0 0.337 0 0.337-0.009 0.119-0.049 0.226-0.112 0.317l0.001-0.002c-0.021 0.031-0.039 0.066-0.052 0.103l-0.001 0.003s0 0 0 0.035c-0.010 0.031-0.020 0.058-0.033 0.083l0.001-0.003c-0.001 0.015-0.001 0.032-0.001 0.049s0 0.034 0.001 0.051l-0-0.002c-0.002 0.026-0.003 0.056-0.003 0.087s0.001 0.061 0.004 0.090l-0-0.004c0 0.058 0 0.075 0 0.12s0 0.053 0 0.089c-0.032 0.043-0.063 0.093-0.090 0.144l-0.003 0.006c-0.022 0.047-0.044 0.086-0.069 0.124l0.002-0.004c-0.035 0.045-0.060 0.099-0.071 0.158l-0 0.002c-0.027 0.101-0.075 0.189-0.138 0.263l0.001-0.001c-0.036 0.031-0.066 0.066-0.092 0.105l-0.001 0.002c-0.024 0.051-0.052 0.095-0.085 0.134l0.001-0.001c-0.059 0.055-0.112 0.113-0.162 0.174l-0.002 0.003c-0.035 0.022-0.077 0.046-0.121 0.067l-0.008 0.004c-0.049 0.021-0.091 0.046-0.13 0.076l0.001-0.001c-0.053 0.035-0.173 0.129-0.186 0.133-0.047 0.012-0.089 0.027-0.128 0.046l0.004-0.002c-0.053 0.036-0.284-0.044-0.368-0.062-0.031-0.005-0.066-0.009-0.102-0.009s-0.071 0.003-0.106 0.009l0.004-0.001c-0.036 0-0.138-0.067-0.186-0.084s-0.191-0.106-0.217-0.106c-0.005 0-0.011 0.001-0.018 0.001-0.038 0-0.073-0.010-0.103-0.028l0.001 0.001c-0.055-0.034-0.118-0.062-0.185-0.083l-0.006-0.002-0.275-0.058c-0.062-0.024-0.137-0.046-0.214-0.061l-0.008-0.001c-0.103-0.011-0.196-0.032-0.285-0.061l0.010 0.003c-0.038-0.006-0.082-0.010-0.126-0.010s-0.088 0.004-0.131 0.010l0.005-0.001c-0.029 0.005-0.063 0.008-0.098 0.008s-0.068-0.003-0.101-0.009l0.004 0c-0.059-0.006-0.128-0.010-0.197-0.010s-0.138 0.004-0.206 0.011l0.008-0.001c-0.005 0-0.010 0-0.016 0-0.082 0-0.163-0.008-0.241-0.024l0.008 0.001c-0.026-0.001-0.056-0.001-0.087-0.001-0.154 0-0.306 0.008-0.455 0.025l0.018-0.002c-0.090 0.022-0.194 0.034-0.3 0.034-0.050 0-0.1-0.003-0.149-0.008l0.006 0.001c-0.155 0-0.2-0.027-0.217 0-0.014 0.002-0.030 0.002-0.047 0.002-0.079 0-0.153-0.021-0.217-0.057l0.002 0.001c-0.089-0.049-0.191 0-0.231 0.031-0.106 0.023-0.228 0.035-0.353 0.035-0.002 0-0.004 0-0.006 0h0c-0.053 0-0.209 0-0.24 0-0.084 0.038-0.182 0.064-0.284 0.075l-0.004 0c-0.060 0.008-0.114 0.027-0.162 0.054l0.002-0.001c-0.036-0.002-0.079-0.004-0.122-0.004s-0.086 0.001-0.128 0.004l0.006-0c-0.053 0.026-0.115 0.043-0.181 0.044h-0.001c-0.101 0.013-0.192 0.040-0.277 0.078l0.006-0.002c-0.030 0.002-0.065 0.003-0.1 0.003s-0.070-0.001-0.104-0.004l0.005 0c-0.1 0.016-0.217 0.025-0.336 0.027h-0.001c-0.060 0.010-0.114 0.025-0.164 0.046l0.005-0.002c-0.062 0-0.182 0.053-0.275 0.084-0.072 0.024-0.155 0.040-0.242 0.044l-0.002 0c-0.044 0-0.302 0.071-0.382 0.084-0.118 0.043-0.258 0.080-0.403 0.104l-0.014 0.002c-0.176 0.042-0.324 0.089-0.468 0.146l0.024-0.008-0.257 0.075c-0.133 0.033-0.286 0.053-0.443 0.053h-0c-0.002-0-0.004-0-0.006-0-0.112 0-0.208 0.064-0.255 0.158l-0.001 0.002c-0.102 0.060-0.221 0.109-0.346 0.14l-0.009 0.002c-0.040 0-0.288 0.151-0.32 0.169-0.047 0.019-0.101 0.034-0.157 0.040l-0.003 0c-0.104 0.007-0.198 0.043-0.277 0.099l0.002-0.001c-0.049 0.038-0.104 0.072-0.163 0.1l-0.005 0.002c-0.091 0.053-0.169 0.11-0.241 0.174l0.002-0.001c-0.107 0.080-0.23 0.147-0.363 0.196l-0.010 0.003c-0.086 0.040-0.161 0.087-0.228 0.143l0.002-0.001c-0.034 0.030-0.074 0.056-0.117 0.074l-0.003 0.001c-0.056 0.007-0.107 0.024-0.153 0.050l0.002-0.001c-0.036 0.030-0.077 0.057-0.121 0.078l-0.004 0.002c-0.027 0-0.173 0.075-0.226 0.098-0.087 0.033-0.157 0.096-0.199 0.175l-0.001 0.002c-0.059 0.128-0.169 0.225-0.303 0.265l-0.003 0.001c-0.164 0.062-0.191 0.129-0.209 0.16-0.031 0.029-0.066 0.055-0.104 0.074l-0.002 0.001c-0.043 0.029-0.081 0.060-0.116 0.093l0-0c-0.040 0.031-0.16 0.058-0.182 0.102s-0.115 0.107-0.209 0.178-0.102 0.053-0.266 0.12c-0.116 0.038-0.208 0.119-0.261 0.224l-0.001 0.003c-0.047 0.054-0.105 0.098-0.17 0.127l-0.003 0.001c-0.036 0-0.142 0-0.164 0.058-0.034 0.063-0.074 0.117-0.12 0.164l0-0c-0.027 0-0.164 0.222-0.2 0.226-0.099 0.061-0.184 0.133-0.256 0.216l-0.001 0.001c-0.034 0.046-0.074 0.085-0.118 0.119l-0.001 0.001s-0.062 0-0.062 0c-0.047 0.052-0.096 0.1-0.149 0.145l-0.002 0.002c-0.027 0-0.133 0.151-0.16 0.169s-0.151 0.124-0.222 0.164c-0.086 0.052-0.159 0.114-0.221 0.185l-0.001 0.001c-0.062 0.080-0.115 0.093-0.142 0.146-0.018 0.041-0.051 0.072-0.092 0.088l-0.001 0c-0.035 0.028-0.074 0.055-0.115 0.078l-0.004 0.002c-0.096 0.063-0.173 0.149-0.225 0.249l-0.002 0.004c-0.029 0.053-0.070 0.096-0.118 0.128l-0.001 0.001c-0.068 0.037-0.125 0.072-0.179 0.11l0.006-0.004c-0.074 0.039-0.136 0.091-0.185 0.154l-0.001 0.001c-0.014 0.054-0.044 0.099-0.084 0.133l-0 0c-0.031 0.027-0.084 0.107-0.124 0.142l-2.902 5.414s-0.111 0.444-0.142 0.51c-0.027 0.068-0.043 0.147-0.043 0.229 0 0.021 0.001 0.042 0.003 0.062l-0-0.003c0.004 0.066 0.007 0.144 0.007 0.222s-0.003 0.156-0.008 0.232l0.001-0.010c0 0.053-0.049 0.133-0.031 0.177 0.006 0.025 0.010 0.053 0.010 0.082s-0.004 0.057-0.010 0.084l0-0.002c-0.009 0.034-0.014 0.073-0.014 0.113s0.005 0.079 0.015 0.116l-0.001-0.003c0.016 0.109 0.025 0.234 0.025 0.362 0 0.046-0.001 0.092-0.004 0.137l0-0.006c-0.004 0.017-0.006 0.036-0.006 0.055s0.002 0.039 0.006 0.057l-0-0.002c0.024 0.052 0.038 0.113 0.040 0.177v0.001c0.004 0.058 0.012 0.111 0.024 0.163l-0.001-0.007c0.019 0.049 0.033 0.106 0.040 0.166l0 0.003s0.027 0.204 0.027 0.213c0.020 0.039 0.038 0.084 0.052 0.132l0.001 0.006c0 0.044 0.071 0.173 0.075 0.2 0.014 0.041 0.035 0.077 0.062 0.107l-0-0 0.124 0.151c0.071 0.086 0.132 0.184 0.179 0.289l0.003 0.008c0.022 0.065 0.057 0.12 0.102 0.164l0 0c0.017 0.027 0.030 0.058 0.039 0.091l0.001 0.002c0.040 0.047 0.082 0.089 0.127 0.127l0.002 0.001c0.032 0.039 0.065 0.073 0.101 0.106l0.001 0.001c0.031 0.040 0.031 0 0.115 0.084s0.16 0.098 0.2 0.204c0.034 0.067 0.082 0.122 0.141 0.163l0.001 0.001c0.034 0.020 0.062 0.049 0.079 0.083l0.001 0.001c0 0.049 0.062 0.058 0.075 0.071 0.027 0.026 0.052 0.053 0.074 0.083l0.001 0.002 0.080 0.080c0.036 0.035 0.069 0.073 0.1 0.113l0.002 0.003c0.018 0.026 0.044 0.044 0.074 0.053l0.001 0s0.044 0.049 0.044 0.049c0.030 0.009 0.056 0.026 0.075 0.049l0 0c0.020 0.023 0.044 0.042 0.070 0.057l0.001 0.001c0.034 0.008 0.063 0.027 0.084 0.053l0 0 0.107 0.111c0.026 0.025 0.057 0.046 0.091 0.061l0.002 0.001c0.041 0.031 0.075 0.070 0.101 0.114l0.001 0.002 0.058 0.031h0.067c0.057 0.035 0.107 0.070 0.153 0.108l-0.002-0.002c0.020 0.012 0.044 0.023 0.069 0.030l0.002 0.001s0.062 0.049 0.075 0.053l0.080 0.067c0.043 0.047 0.089 0.089 0.139 0.127l0.003 0.002c0.023 0.018 0.049 0.036 0.077 0.052l0.003 0.002c0.028 0.012 0.052 0.030 0.071 0.053l0 0s0 0 0.036 0.035 0.182 0.071 0.204 0.084c0.041 0.036 0.079 0.072 0.115 0.11l0.001 0.001c0.023 0.029 0.058 0.047 0.097 0.049h0c0.055 0.002 0.106 0.013 0.154 0.032l-0.003-0.001c0.028 0.026 0.062 0.046 0.1 0.057l0.002 0c0.042 0.017 0.077 0.035 0.11 0.055l-0.003-0.002 0.098 0.031 0.053 0.035c0.029 0.025 0.063 0.046 0.1 0.061l0.002 0.001s0.067 0.044 0.089 0.049c0.089 0.032 0.163 0.087 0.217 0.159l0.001 0.001 0.146 0.035c0.056 0.014 0.104 0.029 0.15 0.047l-0.008-0.003 0.142 0.058c0.041 0.024 0.088 0.045 0.137 0.061l0.005 0.001c0.074 0.008 0.141 0.035 0.196 0.076l-0.001-0.001c0.014 0.004 0.030 0.006 0.047 0.006s0.033-0.002 0.048-0.007l-0.001 0c0.043 0.008 0.082 0.022 0.117 0.041l-0.002-0.001c0.036 0.022 0.080 0.044 0.125 0.063l0.008 0.003h0.084s0.102 0.053 0.115 0.053c0.069 0.007 0.132 0.023 0.191 0.046l-0.005-0.002c0.040 0.018 0.091 0.038 0.144 0.054l0.012 0.003s0.12 0.027 0.146 0.027c0.001 0 0.002 0 0.004 0 0.073 0 0.144 0.013 0.209 0.037l-0.004-0.001c0.053 0.027 0.115 0.052 0.179 0.069l0.007 0.002c0.081 0.008 0.155 0.022 0.227 0.042l-0.009-0.002c0.034 0.020 0.075 0.032 0.119 0.032 0.006 0 0.013-0 0.019-0.001l-0.001 0c0.080 0.009 0.152 0.024 0.221 0.047l-0.008-0.002c0.019 0.003 0.040 0.004 0.062 0.004s0.043-0.002 0.065-0.005l-0.002 0c0.056 0.008 0.106 0.019 0.154 0.033l-0.007-0.002c0.059 0.021 0.127 0.035 0.197 0.040l0.002 0c0.022 0 0.271 0.035 0.311 0.049 0.045 0.019 0.096 0.030 0.15 0.031h0c0.034-0.002 0.075-0.003 0.115-0.003s0.081 0.001 0.121 0.003l-0.006-0 0.235 0.040c0.022 0 0.355 0 0.444 0s0.231 0 0.249 0h0.195c0.044 0 0.102 0 0.124 0s0.244 0 0.275 0h0.124s0.395 0 0.475 0h0.222c0.041-0.002 0.089-0.004 0.138-0.004s0.096 0.001 0.144 0.004l-0.007-0h0.169l0.368-0.027 0.399-0.027 0.244-0.022 0.568-0.075c0.027 0 0.231 0 0.266-0.027 0.050-0.012 0.108-0.020 0.167-0.022l0.002-0 0.24-0.035s0.271-0.040 0.284-0.044 0.195-0.049 0.288-0.058c0.088-0.010 0.168-0.025 0.246-0.047l-0.010 0.003 0.244-0.035 0.373-0.067c0.022 0 0.342-0.071 0.386-0.084l0.391-0.093 0.266-0.067c0.027 0 0.444-0.133 0.484-0.133l0.213-0.049 0.28-0.080c0.044 0 0.266-0.075 0.288-0.075s0.28-0.089 0.311-0.102l0.413-0.124s0.519-0.164 0.586-0.177 0.324-0.111 0.342-0.111l0.359-0.12 0.568-0.195 0.342-0.102s0.355-0.138 0.408-0.146 0.129-0.075 0.164-0.080c0.049-0.012 0.092-0.027 0.133-0.046l-0.004 0.002h0.080c0.057-0.035 0.124-0.064 0.194-0.083l0.006-0.001c0.049-0.003 0.094-0.016 0.135-0.036l-0.002 0.001 0.173-0.049c0.042-0.020 0.090-0.033 0.141-0.035l0.001-0c0.023-0.002 0.050-0.003 0.078-0.003s0.054 0.001 0.081 0.003l-0.004-0s0 0.040 0 0.053c-0.027 0.013-0.050 0.028-0.072 0.045l0.001-0.001s-0.067 0.044-0.067 0.062-0.031 0.044-0.036 0.053c-0.020 0.033-0.034 0.072-0.040 0.114l-0 0.002c0.001 0.006 0.002 0.013 0.002 0.020s-0.001 0.014-0.002 0.021l0-0.001c0.002 0.017 0.003 0.037 0.003 0.058s-0.001 0.040-0.003 0.060l0-0.002-0.075 0.067s-0.022 0-0.053 0.031c-0.063 0.038-0.114 0.091-0.15 0.153l-0.001 0.002c-0.046 0.068-0.114 0.118-0.193 0.141l-0.002 0.001c-0.049 0-0.129 0.075-0.173 0.089s-0.173 0.098-0.209 0.102c-0.131 0.054-0.244 0.122-0.344 0.206l0.002-0.002c-0.022 0.027-0.129 0.111-0.142 0.124s-0.084 0.031-0.098 0.040l-0.173 0.093-0.102 0.058c-0.022 0.016-0.046 0.032-0.072 0.047l-0.004 0.002s-0.031 0.058-0.067 0.071-0.058 0.124-0.058 0.16-0.036 0.124-0.053 0.129c-0.040 0.031-0.075 0.066-0.106 0.105l-0.001 0.001s-0.053 0.075-0.084 0.089c-0.038 0.014-0.071 0.035-0.098 0.062v0c-0.049 0.049 0 0-0.031 0.049s-0.071 0.080-0.111 0.111-0.027 0-0.089 0.044-0.075 0.075-0.102 0.102-0.084 0.040-0.142 0.071c-0.068 0.034-0.126 0.072-0.179 0.116l0.001-0.001c-0.040 0.027-0.088 0.046-0.14 0.053l-0.002 0c-0.044 0-0.115 0.093-0.186 0.124-0.063 0.028-0.117 0.062-0.165 0.103l0.001-0.001c-0.069 0.040-0.149 0.079-0.233 0.111l-0.012 0.004c-0.063 0.023-0.117 0.055-0.165 0.094l0.001-0.001c-0.041 0.026-0.089 0.043-0.141 0.049l-0.001 0c-0.054 0.019-0.101 0.044-0.143 0.076l0.001-0.001c-0.080 0.055-0.149 0.111-0.215 0.17l0.002-0.002c-0.027 0.040-0.098 0.049-0.124 0.053-0.067 0.015-0.126 0.038-0.181 0.068l0.004-0.002c-0.022 0 0 0.044-0.084 0.058-0.058 0.010-0.109 0.039-0.146 0.080l-0 0c-0.031 0.031-0.16 0.133-0.182 0.155-0.035 0.027-0.077 0.049-0.122 0.061l-0.003 0.001c-0.049 0-0.084 0.067-0.107 0.084-0.045 0.026-0.098 0.050-0.154 0.069l-0.006 0.002c-0.069 0.014-0.129 0.037-0.185 0.068l0.003-0.002c-0.048 0.033-0.090 0.068-0.129 0.106l-0 0c-0.033 0.029-0.073 0.051-0.118 0.062l-0.002 0c-0.038 0.031-0.071 0.064-0.101 0.101l-0.001 0.001c-0.043 0.025-0.095 0.052-0.149 0.076l-0.011 0.004c-0.058 0.037-0.128 0.061-0.203 0.066l-0.001 0c-0.058 0-0.098 0.053-0.213 0.080s-0.062 0.035-0.138 0.044-0.12 0-0.146 0.040c-0.047 0.034-0.102 0.060-0.161 0.075l-0.003 0.001c-0.107 0-0.093 0.049-0.151 0.093-0.072 0.035-0.157 0.058-0.246 0.066l-0.003 0c-0.076 0.013-0.141 0.030-0.205 0.052l0.010-0.003c-0.035 0.018-0.075 0.031-0.118 0.035l-0.001 0-0.107 0.027s-0.124 0-0.155 0.031c-0.056 0.039-0.126 0.062-0.201 0.062-0.004 0-0.008-0-0.013-0l0.001 0c-0.058 0-0.111 0.040-0.129 0.040-0.018-0.003-0.039-0.004-0.060-0.004s-0.042 0.002-0.062 0.005l0.002-0c-0.061 0.016-0.134 0.029-0.208 0.035l-0.005 0c-0.077 0.015-0.145 0.041-0.207 0.077l0.003-0.002s-0.022 0-0.098 0-0.080 0.044-0.138 0.053c-0.016-0.002-0.035-0.003-0.053-0.003s-0.037 0.001-0.056 0.003l0.002-0c-0.048 0.006-0.091 0.018-0.131 0.037l0.003-0.001c-0.037 0.008-0.079 0.013-0.122 0.013s-0.085-0.005-0.126-0.014l0.004 0.001c-0.111 0-0.071 0-0.129 0-0.058 0.019-0.108 0.051-0.146 0.093l-0 0c-0.022 0.035-0.146 0-0.16 0-0.025 0.012-0.055 0.023-0.086 0.030l-0.003 0.001c-0.019-0.008-0.041-0.012-0.064-0.012s-0.045 0.005-0.065 0.013l0.001-0c-0.083 0.032-0.179 0.051-0.279 0.053h-0.001c-0.075 0.015-0.14 0.035-0.203 0.060l0.008-0.003s-0.12 0.053-0.146 0.058c-0.082 0.015-0.155 0.043-0.221 0.082l0.003-0.002c-0.063 0.032-0.137 0.051-0.216 0.051-0.018 0-0.035-0.001-0.052-0.003l0.002 0c-0.071 0.022-0.133 0.049-0.191 0.082l0.004-0.002c-0.059 0.026-0.129 0.044-0.201 0.053l-0.004 0c-0.036-0.003-0.078-0.005-0.12-0.005s-0.084 0.002-0.125 0.005l0.005-0c-0.028 0.004-0.060 0.006-0.093 0.006s-0.065-0.002-0.097-0.006l0.004 0c-0.073 0.005-0.139 0.033-0.191 0.076l0.001-0-0.089 0.053c-0.036 0.020-0.082 0.040-0.128 0.059l-0.009 0.003c-0.031-0.003-0.066-0.005-0.102-0.005s-0.071 0.002-0.106 0.005l0.004-0c-0.102 0.084-0.328 0.049-0.351 0.053s-0.044 0.027-0.044 0.027c-0.023-0.004-0.050-0.006-0.078-0.006s-0.054 0.002-0.080 0.007l0.003-0c-0.038 0.004-0.082 0.006-0.126 0.006s-0.089-0.002-0.132-0.007l0.005 0h-0.133c-0.028 0.002-0.060 0.003-0.093 0.003s-0.065-0.001-0.097-0.004l0.004 0h-0.217c-0.049-0.003-0.106-0.005-0.164-0.005s-0.115 0.002-0.172 0.005l0.008-0c-0.017 0.002-0.036 0.003-0.055 0.003s-0.039-0.001-0.058-0.003l0.002 0s-0.084 0-0.111 0-0.111 0-0.142 0c-0.036 0.003-0.069 0.013-0.099 0.027l0.002-0.001c-0.021 0.002-0.046 0.004-0.071 0.004s-0.050-0.001-0.074-0.004l0.003 0c-0.015-0.005-0.033-0.009-0.051-0.009s-0.036 0.003-0.052 0.009l0.001-0c-0.027 0.006-0.057 0.010-0.089 0.010s-0.062-0.004-0.091-0.011l0.003 0.001c-0.007-0.001-0.016-0.002-0.024-0.002-0.038 0-0.072 0.012-0.1 0.033l0-0c-0.026 0.009-0.056 0.014-0.087 0.014s-0.061-0.005-0.088-0.015l0.002 0.001c-0.021-0.005-0.046-0.008-0.071-0.008s-0.050 0.003-0.073 0.009l0.002-0c-0.015 0.001-0.033 0.002-0.051 0.002s-0.036-0.001-0.053-0.002l0.002 0c-0.014 0.002-0.030 0.003-0.047 0.003s-0.033-0.001-0.048-0.003l0.002 0c-0.015-0.001-0.033-0.002-0.051-0.002s-0.036 0.001-0.053 0.002l0.002-0c-0.018 0.006-0.038 0.009-0.060 0.009s-0.042-0.003-0.061-0.010l0.001 0c-0.013-0.003-0.027-0.005-0.042-0.005s-0.030 0.002-0.043 0.005l0.001-0-0.111 0.027c-0.018 0.002-0.039 0.003-0.060 0.003s-0.042-0.001-0.063-0.003l0.003 0c-0.022-0.004-0.047-0.007-0.073-0.007s-0.051 0.002-0.076 0.007l0.003-0c-0.024 0.004-0.052 0.006-0.080 0.006s-0.056-0.002-0.083-0.007l0.003 0c-0.017-0.003-0.036-0.005-0.055-0.005s-0.039 0.002-0.057 0.006l0.002-0-0.151-0.035c-0.019-0.003-0.040-0.005-0.062-0.005s-0.043 0.002-0.064 0.005l0.002-0c-0.015 0.002-0.032 0.003-0.049 0.003s-0.034-0.001-0.051-0.003l0.002 0c-0.022-0.003-0.047-0.005-0.073-0.005s-0.051 0.002-0.076 0.005l0.003-0c-0.015 0.002-0.033 0.004-0.051 0.004s-0.036-0.001-0.053-0.004l0.002 0c-0.015-0.002-0.033-0.003-0.051-0.003s-0.036 0.001-0.053 0.004l0.002-0-0.093-0.027c-0.015-0.004-0.031-0.006-0.049-0.006s-0.034 0.002-0.050 0.007l0.001-0-0.129-0.040h-0.284c-0.011 0.004-0.024 0.006-0.038 0.006s-0.026-0.002-0.039-0.006l0.001 0c-0.028-0.015-0.061-0.026-0.096-0.031l-0.001-0s-0.080-0.035-0.124-0.049c-0.015-0.004-0.033-0.006-0.051-0.006s-0.036 0.002-0.053 0.006l0.001-0c-0.015 0.002-0.033 0.004-0.051 0.004s-0.036-0.001-0.053-0.004l0.002 0c-0.028-0.018-0.061-0.031-0.097-0.035l-0.001-0c-0.047-0.002-0.091-0.013-0.131-0.032l0.002 0.001c-0.045-0.017-0.097-0.027-0.152-0.027-0.003 0-0.006 0-0.009 0h0c-0.038-0.003-0.073-0.014-0.103-0.032l0.001 0.001c-0.026-0.019-0.058-0.031-0.092-0.035l-0.001-0c-0.041-0.011-0.076-0.029-0.107-0.054l0.001 0c-0.063-0.023-0.135-0.036-0.211-0.036-0.007 0-0.014 0-0.021 0l0.001-0s-0.049-0.031-0.062-0.027c-0.076-0.007-0.145-0.030-0.207-0.064l0.003 0.001c-0.038-0.022-0.084-0.036-0.133-0.036-0.002 0-0.003 0-0.005 0h0c-0.071-0.006-0.135-0.025-0.194-0.055l0.003 0.001c-0.062-0.040-0.12-0.035-0.146-0.053l-0.209-0.093c-0.069-0.020-0.126-0.041-0.181-0.066l0.008 0.003c-0.079-0.019-0.149-0.049-0.211-0.090l0.003 0.002c-0.062-0.058-0.102-0.044-0.129-0.058-0.033-0.021-0.071-0.039-0.112-0.052l-0.004-0.001c-0.022 0-0.244-0.111-0.257-0.115l-0.146-0.053-0.12-0.049c-0.030-0.029-0.064-0.055-0.099-0.078l-0.003-0.002-0.182-0.102c-0.047-0.035-0.101-0.064-0.16-0.083l-0.004-0.001c-0.048-0.024-0.089-0.054-0.124-0.089l0 0c-0.052-0.039-0.112-0.079-0.173-0.115l-0.009-0.005c-0.031 0-0.111-0.049-0.12-0.058s-0.062-0.071-0.102-0.080-0.133-0.084-0.146-0.089-0.133-0.075-0.146-0.089l-0.226-0.142s-0.186-0.138-0.2-0.155c-0.016-0.032-0.041-0.057-0.070-0.075l-0.001-0c-0.039-0.013-0.073-0.033-0.103-0.058l0 0s-0.062-0.071-0.084-0.075c-0.049-0.029-0.091-0.060-0.13-0.094l0.001 0.001c-0.035-0.036-0.074-0.067-0.117-0.092l-0.003-0.001s-0.075-0.035-0.080-0.058-0.106-0.111-0.106-0.111l-0.133-0.098c-0.041-0.046-0.086-0.086-0.135-0.122l-0.002-0.002c-0.031 0-0.151-0.142-0.16-0.151-0.040-0.049-0.078-0.104-0.112-0.162l-0.004-0.007-0.093-0.075-0.142-0.133s-0.067-0.098-0.093-0.107c-0.081-0.060-0.152-0.124-0.216-0.194l-0.001-0.001s-0.062-0.075-0.084-0.111c-0.038-0.044-0.080-0.082-0.126-0.114l-0.002-0.001-0.129-0.138-0.142-0.182-0.177-0.177-0.089-0.102c-0.059-0.082-0.12-0.155-0.187-0.222l0 0c-0.078-0.085-0.152-0.178-0.22-0.275l-0.006-0.009c-0.051-0.072-0.101-0.134-0.153-0.193l0.002 0.003s-0.075-0.124-0.111-0.155c-0.044-0.056-0.084-0.118-0.117-0.184l-0.003-0.006c-0.002-0.022-0.014-0.041-0.031-0.053l-0-0c-0.027 0-0.031-0.062-0.031-0.062l-0.058-0.080c-0.018-0.041-0.039-0.076-0.063-0.108l0.001 0.002c-0.047-0.054-0.093-0.113-0.134-0.176l-0.004-0.006s-0.195-0.333-0.195-0.333c-0.032-0.067-0.063-0.122-0.097-0.175l0.004 0.007c-0.030-0.047-0.061-0.104-0.089-0.163l-0.004-0.010-0.089-0.177s-0.080-0.133-0.084-0.146c-0.024-0.037-0.048-0.081-0.068-0.127l-0.003-0.007c0-0.022-0.098-0.213-0.111-0.235-0.022-0.060-0.046-0.112-0.074-0.16l0.003 0.005c-0.012-0.019-0.022-0.041-0.030-0.064l-0.001-0.002c0-0.031-0.151-0.368-0.16-0.382-0.017-0.033-0.030-0.072-0.039-0.112l-0.001-0.003c0.001-0.009 0.002-0.019 0.002-0.029s-0.001-0.020-0.002-0.030l0 0.001c-0.035-0.069-0.072-0.155-0.105-0.244l-0.006-0.018c0-0.040-0.102-0.262-0.111-0.284s-0.058-0.204-0.067-0.209c-0.034-0.065-0.062-0.141-0.079-0.221l-0.001-0.006c-0.028-0.101-0.061-0.188-0.102-0.271l0.004 0.009s-0.040-0.186-0.040-0.186c-0.017-0.081-0.039-0.151-0.065-0.218l0.003 0.009s-0.080-0.368-0.080-0.368c-0.007-0.092-0.018-0.174-0.033-0.254l0.002 0.015c-0.009-0.058-0.023-0.111-0.042-0.161l0.002 0.005c-0.003-0.033-0.005-0.072-0.005-0.111s0.002-0.078 0.005-0.116l-0 0.005s-0.027-0.284-0.035-0.297c-0.006-0.021-0.009-0.044-0.009-0.069s0.003-0.048 0.010-0.071l-0 0.002c0.004-0.026 0.006-0.056 0.006-0.087s-0.002-0.061-0.007-0.090l0 0.003s0-0.146 0-0.186 0-0.124 0-0.186c-0.005-0.047-0.021-0.089-0.045-0.125l0.001 0.001c-0.006-0.025-0.010-0.053-0.010-0.082s0.004-0.057 0.010-0.084l-0.001 0.002c0.003-0.029 0.005-0.062 0.005-0.095s-0.002-0.067-0.006-0.099l0 0.004 0.484-4.407z"></path>
<path fill="#fff" d="M106.677 17.152c0-1.606 11.636-2.907 25.947-2.907s25.965 1.3 25.965 2.907-11.636 2.902-25.965 2.902-25.947-1.331-25.947-2.902z"></path>
<path fill="#fff" d="M152.358 22.299c0-1.108 0.898-2.006 2.006-2.006s2.006 0.898 2.006 2.006c0 1.108-0.898 2.006-2.006 2.006v0c-1.108 0-2.006-0.898-2.006-2.006v0z"></path>
<path fill="#fff" d="M25.903 14.911c0.282-1.041 1.218-1.794 2.33-1.794s2.048 0.753 2.326 1.777l0.004 0.017zM34.299 16.814c0-3.874-2.277-6.301-6.213-6.301-3.697 0-6.279 2.277-6.279 6.057 0 3.91 2.809 6.031 6.563 6.031 2.592 0 5.13-1.216 5.769-3.887h-3.861c-0.352 0.627-1.013 1.044-1.771 1.044-0.055 0-0.109-0.002-0.162-0.006l0.007 0c-1.655 0-2.516-0.888-2.516-2.516h8.463v-0.444z"></path>
<path fill="#fff" d="M68.482 13.992c0.036-0.002 0.079-0.003 0.122-0.003 1.363 0 2.467 1.105 2.467 2.467 0 0.034-0.001 0.067-0.002 0.101l0-0.005c-0.059 1.382-1.194 2.48-2.585 2.48s-2.526-1.098-2.585-2.475l-0-0.005c-0.001-0.030-0.002-0.065-0.002-0.101 0-1.36 1.103-2.463 2.463-2.463 0.043 0 0.085 0.001 0.128 0.003l-0.006-0zM74.952 10.886h-4.016v1.096c-0.847-0.914-2.054-1.484-3.394-1.484-0.041 0-0.082 0.001-0.122 0.002l0.006-0c-3.368 0-5.685 2.782-5.685 6.031s2.365 6.057 5.711 6.057c1.331 0 2.72-0.506 3.426-1.633h0.044v1.256h4.016v-11.334z"></path>
<path fill="#fff" d="M91.061 13.881c0.034-0.002 0.073-0.003 0.113-0.003 1.36 0 2.463 1.103 2.463 2.463 0 0.035-0.001 0.070-0.002 0.105l0-0.005c-0.059 1.382-1.194 2.48-2.585 2.48s-2.526-1.098-2.585-2.475l-0-0.005c-0.001-0.030-0.002-0.065-0.002-0.101 0-1.36 1.103-2.463 2.463-2.463 0.044 0 0.089 0.001 0.132 0.004l-0.006-0zM97.531 10.775h-4.021v1.105c-0.846-0.914-2.051-1.484-3.39-1.484-0.042 0-0.084 0.001-0.126 0.002l0.006-0c-3.364-0.013-5.685 2.778-5.685 6.022s2.365 6.057 5.725 6.057c1.331 0 2.72-0.51 3.426-1.637h0.044v1.26h4.021v-11.338z"></path>
<path fill="#fff" d="M2.254 4.841c-1.245 0-2.254 1.009-2.254 2.254s1.009 2.254 2.254 2.254c1.243 0 2.252-1.007 2.254-2.25v-0c-0.008-1.241-1.013-2.245-2.254-2.25h-0zM4.265 10.89h-4.021v11.338h4.021v-11.338z"></path>
<path fill="#fff" d="M79.998 4.713c-0.001 0-0.003 0-0.004 0-1.248 0-2.259 1.011-2.259 2.259s1.011 2.259 2.259 2.259c1.248 0 2.259-1.011 2.259-2.259 0-0.002 0-0.003 0-0.005v0c-0.003-1.244-1.010-2.252-2.254-2.254h-0zM82.012 10.761h-4.025v17.005h4.025v-17.005z"></path>
<path fill="#fff" d="M13.672 14.005c0.036-0.002 0.079-0.003 0.122-0.003 1.36 0 2.463 1.103 2.463 2.463 0 0.037-0.001 0.074-0.002 0.11l0-0.005c0.002 0.037 0.003 0.081 0.003 0.125 0 1.338-1.085 2.423-2.423 2.423-0.057 0-0.114-0.002-0.171-0.006l0.008 0c-0.046 0.003-0.1 0.005-0.154 0.005-1.341 0-2.427-1.087-2.427-2.427 0-0.042 0.001-0.084 0.003-0.126l-0 0.006c-0.001-0.031-0.002-0.068-0.002-0.105 0-1.36 1.103-2.463 2.463-2.463 0.044 0 0.089 0.001 0.133 0.004l-0.006-0zM7.198 22.228h4.021v-1.26c0.764 0.999 1.956 1.637 3.298 1.637 0.061 0 0.121-0.001 0.181-0.004l-0.009 0c3.377 0 5.725-2.782 5.725-6.053s-2.321-6.035-5.68-6.035c-0.034-0.001-0.074-0.001-0.114-0.001-1.34 0-2.547 0.564-3.399 1.468l-0.002 0.002v-7.544h-4.021v17.791z"></path>
<path fill="#fff" d="M40.702 10.779h-4.021v11.334h4.021v-4.571c0-1.948 0.55-3.43 2.782-3.43 0.048-0.003 0.105-0.004 0.162-0.004 0.564 0 1.095 0.141 1.56 0.39l-0.018-0.009v-3.865h-0.772c-1.571 0-2.898 0.621-3.67 2.010h-0.044v-1.855z"></path>
<path fill="#fff" d="M58.577 17.808c-0.808 0.796-1.917 1.287-3.141 1.287-2.473 0-4.478-2.005-4.478-4.478 0-2.47 1.999-4.472 4.468-4.478h0.001c0.007-0 0.016-0 0.024-0 1.273 0 2.422 0.536 3.231 1.396l0.002 0.002 3.151-3.151c-1.625-1.678-3.899-2.72-6.417-2.72-4.931 0-8.929 3.997-8.929 8.929s3.997 8.929 8.929 8.929c0 0 0 0 0 0v0c0.015 0 0.032 0 0.050 0 2.414 0 4.605-0.952 6.219-2.501l-0.003 0.003-3.106-3.217z"></path>
</svg>
